<svg xmlns="http://www.w3.org/2000/svg" viewBox="0 0 101 47" width="101" height="47">
	<style>
		tspan { white-space:pre }
		.shp0 { fill: #333333 } 
	</style>
	<g id="homepage">
		<g id="მანქანის აიქონები">
			<path id="Car Type01 (Traced)" class="shp0" d="M67.15 1.47C66.25 2.28 64.9 3.31 64.15 3.77L62.78 4.61L57.02 4.92C46.41 5.51 41.77 6.2 39.96 7.45C38.77 8.29 34.54 12.04 31.27 15.19C29.94 16.46 28.67 17.6 28.44 17.72C28.21 17.85 26.74 18.08 25.19 18.25C16.82 19.14 8.74 21.46 4.41 24.21C1.99 25.75 2.1 25.52 2.56 28.28C2.93 30.53 2.93 30.64 2.59 30.89C2.4 31.03 1.9 31.59 1.48 32.13C0.41 33.51 0.55 34.29 2.24 36.36C2.96 37.24 3.51 38.14 3.51 38.41C3.51 38.68 3.24 39.3 2.92 39.79C2.6 40.28 2.33 40.93 2.33 41.23C2.33 41.76 2.4 41.77 5.07 41.65C6.57 41.59 7.84 41.48 7.9 41.4C7.96 41.33 7.87 40.75 7.7 40.12C7.29 38.58 7.3 35.25 7.71 33.6C9.09 28.04 12.93 24.8 17.18 25.59C21.83 26.45 25.23 32.48 24.45 38.52C24.32 39.51 24.16 40.51 24.1 40.75C23.98 41.16 25.5 41.18 46.6 41.02C59.05 40.93 69.26 40.82 69.3 40.77C69.33 40.73 69.26 40.27 69.13 39.74C69 39.21 68.89 37.95 68.89 36.92C68.9 29.27 74.24 23.76 79.78 25.69C81.86 26.41 83.7 28.21 84.9 30.71C86.02 33.04 86.55 36.5 86.15 38.83C86.04 39.47 85.99 40.04 86.03 40.1C86.11 40.2 97.16 38.42 98.29 38.13L98.84 37.98L98.34 37.29C98.07 36.91 97.84 36.53 97.84 36.45C97.84 36.37 98.37 35.75 99.02 35.08C100.37 33.65 100.85 32.63 100.67 31.53C100.54 30.74 99.83 29.6 99.04 28.92C98.59 28.54 98.58 28.48 98.79 26.75C99.03 24.63 98.81 22.64 98.12 20.83C97.72 19.76 97.7 19.56 97.95 19.28C98.32 18.87 98.31 18.01 97.92 17.44C97.63 17 97.65 16.89 98.31 15.82C98.7 15.19 99.01 14.57 99.01 14.44C99.01 14.08 92.79 11.97 91.77 11.98C90.45 12 88.12 12.87 86.53 13.94L85.14 14.87L81.87 12.43C77.7 9.3 72.27 5.66 70.89 5.05C70.3 4.79 69.78 4.55 69.74 4.52C69.7 4.48 69.94 4.15 70.28 3.77C71.12 2.83 71.12 1.62 70.29 0.68C69.96 0.31 69.49 0.01 69.24 0.01C68.99 0.01 68.05 0.67 67.15 1.47ZM76.3 27.63C74.14 28.14 72.24 30.07 71.24 32.79C70.66 34.36 70.6 34.75 70.6 36.88C70.6 39.01 70.66 39.4 71.23 40.96C74.04 48.59 82.16 47.91 84.27 39.88C84.72 38.16 84.67 35.35 84.15 33.49C83.56 31.39 81.76 28.94 80.26 28.22C78.92 27.56 77.51 27.35 76.3 27.63ZM13.95 27.98C12.74 28.51 12.05 29.06 11.18 30.19C7.73 34.67 8.49 42.08 12.72 45.1C13.78 45.85 14.19 45.99 15.62 46.08C17.93 46.23 19.19 45.58 20.8 43.42C21.7 42.21 22.1 41.44 22.45 40.15C24.12 34.15 21 27.94 16.2 27.71C15.37 27.67 14.4 27.79 13.95 27.98Z" />
		</g>
	</g>
</svg>