<svg xmlns="http://www.w3.org/2000/svg" viewBox="0 0 101 45" width="101" height="45">
	<style>
		tspan { white-space:pre }
		.shp0 { fill: #333333 } 
	</style>
	<g id="homepage">
		<g id="მანქანის აიქონები">
			<path id="Car Type02 (Traced)" class="shp0" d="M51.46 0.06C46.28 0.59 41.54 3.1 35.4 8.57C32.98 10.73 32.45 11.1 32.21 10.83C31.84 10.41 25.98 10.65 22.26 11.23C14.74 12.41 7.87 14.97 3.61 18.2L2.15 19.31L2.03 21.53C1.95 23.04 1.78 24.09 1.49 24.84C0.97 26.19 0.97 27.25 1.47 30.26C1.83 32.46 1.84 32.62 1.52 32.93C1.34 33.11 1.12 33.26 1.03 33.26C0.95 33.26 0.88 33.76 0.88 34.38C0.88 35.44 0.92 35.53 1.72 36.04C3.11 36.95 8.58 38.7 8.85 38.34C8.89 38.28 8.78 37.49 8.61 36.58C7.85 32.53 8.69 28.57 10.96 25.54C16.05 18.75 24.78 22.83 25.74 32.44C25.93 34.44 25.75 36.36 25.19 38.27C25.06 38.7 25.27 38.73 28.05 38.73C29.7 38.72 37.07 38.54 44.43 38.33C52.86 38.08 60.26 38 64.43 38.11C70.9 38.28 71.05 38.28 70.91 37.79C70.82 37.52 70.66 36.44 70.54 35.4C69.83 29.1 73.1 22.83 77.97 21.13C82.83 19.44 88.2 23.69 89.58 30.33C89.97 32.22 90.05 35.21 89.75 36.63C89.64 37.12 89.58 37.56 89.62 37.61C89.7 37.72 96.08 34.64 96.79 34.15C97.62 33.58 99.25 31.02 99.89 29.27C100.92 26.43 101.12 22.5 100.39 18.92C99.92 16.64 99.46 12.42 99.6 11.66C99.67 11.28 99.77 10.77 99.83 10.51C99.92 10.09 99.73 10.06 97.23 10.12C95.74 10.15 93.28 10.03 91.75 9.85C89.26 9.55 88.81 9.41 87.45 8.58C82.77 5.72 77.15 3 72.07 1.14L69.14 0.06L60.74 0.02C56.12 -0.01 51.95 0.01 51.46 0.06ZM78.84 23.09C76.43 23.58 73.86 26.19 72.82 29.22C72.16 31.16 71.88 33.91 72.17 35.74C73.16 42.13 77.99 46.1 82.5 44.23C86.46 42.59 88.89 37.43 88.21 32.14C87.44 26.1 83.37 22.18 78.84 23.09ZM15.96 24.41C13.65 24.84 11.29 27.37 10.43 30.32C10.12 31.41 10 32.41 9.99 33.94C9.98 35.81 10.05 36.25 10.6 37.75C11.35 39.79 12.76 41.63 14.31 42.59C15.24 43.16 15.7 43.28 17.09 43.28C18.47 43.28 18.93 43.16 19.86 42.59C22.9 40.7 24.59 36.6 24.09 32.34C23.46 27.13 19.92 23.68 15.96 24.41Z" />
		</g>
	</g>
</svg>