<svg xmlns="http://www.w3.org/2000/svg" viewBox="0 0 101 59" width="101" height="59">
	<style>
		tspan { white-space:pre }
		.shp0 { fill: #333333 } 
	</style>
	<g id="homepage">
		<g id="მანქანის აიქონები">
			<path id="Car Type06 (Traced)" class="shp0" d="M60.6 0.62C54.89 0.97 48.1 2.21 43.51 3.74C39.56 5.07 39.6 5.03 34.28 12.05C31.59 15.61 29.36 18.35 29.09 18.43C28.83 18.51 23.62 19.5 17.52 20.63C8.04 22.39 6.39 22.76 6.15 23.17C5.99 23.44 5.01 25.42 3.98 27.57C2.94 29.72 1.84 31.86 1.55 32.32C0.51 33.92 0.12 37.37 0.7 39.83C1.17 41.84 2.67 43.99 4.47 45.26C5.22 45.78 5.88 46.2 5.94 46.2C6.01 46.2 6.06 45.59 6.06 44.83C6.08 37.98 9.78 31.65 14.79 29.91C16.25 29.4 19.07 29.42 20.58 29.94C24.49 31.28 27.79 35.7 28.8 40.94C28.98 41.85 29.12 43.53 29.13 44.68L29.13 46.78L37.57 46.59C42.2 46.48 50.75 46.21 56.55 45.97L67.09 45.55L67.24 43.73C67.58 39.58 68.56 36.81 70.71 33.95C73 30.89 75.49 29.52 78.78 29.52C80.72 29.52 82.39 30.01 83.88 31.01C86.88 33.03 89.38 37.3 90.04 41.51C90.18 42.44 90.32 43.24 90.35 43.29C90.37 43.34 90.74 43.14 91.17 42.85C93.43 41.3 94.71 37.04 94.49 31.67C94.42 29.77 94.45 29.52 94.72 29.67C96.46 30.64 98.57 30.06 99.6 28.32C100.45 26.87 100.47 26.23 99.92 18.3C99.64 14.23 99.31 10.4 99.2 9.81C99.08 9.21 98.71 8.37 98.37 7.93C96.47 5.48 93.6 5.93 92.24 8.89C91.76 9.94 91.7 11.36 91.98 14.93C92.06 16 92.1 16.93 92.06 17C91.8 17.41 91.55 16.16 91.39 13.72C91.18 10.55 90.71 7.61 89.96 4.9C89.49 3.18 89.48 3.05 89.8 2.76C91.01 1.64 90.97 1.75 90.45 1.01L89.98 0.33L76.97 0.37C69.82 0.4 62.45 0.51 60.6 0.62ZM15.06 32.02C9.49 34.02 6.29 42.44 8.4 49.57C11.54 60.22 22.7 60.96 26.46 50.78C27.28 48.54 27.53 47.15 27.54 44.81C27.55 38.88 24.44 33.53 20.06 31.98C18.76 31.51 16.42 31.54 15.06 32.02ZM76.18 32.03C71.55 33.69 68.25 40.25 68.92 46.46C69.71 53.77 74.61 58.87 79.92 57.93C82.38 57.49 83.99 56.42 85.76 54.05C91.19 46.79 88.62 34.61 81.12 32C79.72 31.51 77.58 31.52 76.18 32.03Z" />
		</g>
	</g>
</svg>