<svg xmlns="http://www.w3.org/2000/svg" viewBox="0 0 101 62" width="101" height="62">
	<style>
		tspan { white-space:pre }
		.shp0 { fill: #333333 } 
	</style>
	<g id="homepage">
		<g id="მანქანის აიქონები">
			<path id="Car Type03 (Traced)" class="shp0" d="M52.11 0.42C43.69 2.19 34.65 7.81 27.65 15.64C26.86 16.52 25.9 17.47 25.51 17.73C24.77 18.25 20.63 19.66 15.83 21.04C9.39 22.88 5.61 25.32 4.17 28.53C3.93 29.06 3.46 29.91 3.11 30.41C2.27 31.64 1.93 32.53 1.42 34.84C1.04 36.58 0.98 37.52 0.92 43.27C0.86 49.46 0.88 49.81 1.28 50.91C2.19 53.42 4.03 54.43 8.05 54.59C9.58 54.65 11.13 54.63 11.49 54.54L12.14 54.38L11.88 53.02C11.53 51.26 11.54 48.11 11.9 46.34C12.66 42.51 14.89 38.94 17.55 37.3C21.61 34.8 26.03 35.85 29.19 40.07C31.59 43.27 32.63 47.32 32.17 51.69C32.05 52.81 31.99 53.77 32.03 53.83C32.13 53.96 71.26 52.85 72.84 52.67L74.02 52.54L73.95 50.05C73.88 47 74.32 44.81 75.46 42.52C76.79 39.86 78 38.44 80 37.19C84.95 34.1 91.08 37.11 93.48 43.83C94.26 46.04 94.75 49.09 94.56 50.65C94.43 51.72 94.69 51.77 96.32 50.96C97.68 50.28 99.21 48.33 99.87 46.45C101.02 43.18 101.15 38.58 100.2 34.75C99.85 33.3 99.61 31.45 99.41 28.49C98.86 20.74 98.55 18.89 97.6 17.89C97.31 17.59 96.81 17.38 96.38 17.38C95.73 17.38 95.6 17.26 95.07 16.13C94.53 14.96 93.05 13.09 90.19 9.95C89.05 8.7 89 8.6 88.91 7.24C88.79 5.36 88.02 4.35 86.72 4.35C86.24 4.35 84.29 3.94 82.37 3.45C73.03 1.05 67.5 0.22 59.66 0.04C55.23 -0.06 54.14 0 52.11 0.42ZM20.79 38.25C14.72 39.27 11.33 48.23 14.29 55.47C15.02 57.26 16.83 59.47 18.35 60.42C20.9 62.01 24.21 61.69 26.61 59.61C31.32 55.53 32.05 46.93 28.12 41.59C26.22 39.01 23.56 37.79 20.79 38.25ZM83.1 38.23C81.54 38.53 80.62 38.99 79.4 40.08C76.13 42.99 74.73 48.21 75.87 53.16C77.02 58.13 80.34 61.41 84.23 61.42C89.49 61.43 93.52 55.31 92.87 48.3C92.28 42.04 87.7 37.31 83.1 38.23Z" />
		</g>
	</g>
</svg>