<svg xmlns="http://www.w3.org/2000/svg" viewBox="0 0 101 41" width="101" height="41">
	<style>
		tspan { white-space:pre }
		.shp0 { fill: #333333 } 
	</style>
	<g id="homepage">
		<g id="მანქანის აიქონები">
			<path id="Car Type04 (Traced)" class="shp0" d="M52.58 0.88C48.25 1.36 42.98 3.73 35.51 8.57C31.01 11.48 29.38 12.07 25.23 12.27C22.93 12.38 20.99 12.28 17.16 11.83C11.3 11.14 10.9 11.19 10.07 12.87C9.66 13.7 9.31 14.01 8.17 14.58C4.94 16.19 3.55 17.29 1.65 19.72L0.43 21.29L0.43 25.88L0.43 30.46L1.02 30.91L1.61 31.36L1.02 32.45C0.1 34.13 0.29 35.32 1.55 35.79C2.29 36.06 10.39 36.18 10.39 35.92C10.39 35.84 10.21 35.32 10 34.76C8.71 31.39 8.73 26.95 10.05 23.37C12.53 16.65 18.49 14.06 23.57 17.49C24.79 18.32 26.92 21.18 27.62 22.92C29.05 26.5 29.11 31.13 27.77 34.82C27.56 35.41 27.41 35.93 27.45 35.98C27.52 36.07 71.57 36.8 71.67 36.71C71.69 36.69 71.45 35.95 71.12 35.07C70.79 34.2 70.38 32.57 70.21 31.45C69.22 24.99 72.37 18.28 77.29 16.37C78.15 16.04 78.91 15.96 80.42 16.05C82.26 16.16 82.55 16.25 84.05 17.21C87.64 19.52 89.72 23.91 89.71 29.14C89.71 31.14 89.36 33.11 88.63 35.32C88.5 35.71 88.64 35.69 89.9 35.2C92.02 34.38 92.75 33.19 94.53 27.64C95.35 25.1 97.37 17.03 97.6 15.4C97.73 14.49 97.71 14.43 97.24 14.43C96.97 14.43 96.61 14.26 96.45 14.04C96.29 13.83 96.06 13.65 95.95 13.65C95.19 13.65 96.75 11.76 98.82 10.19C99.78 9.46 100.28 8.91 100.36 8.5C100.47 7.91 100.1 5.65 99.86 5.47C99.8 5.42 97.83 6.17 95.48 7.14C92.18 8.5 90.98 9.12 90.16 9.87L89.09 10.85L85.53 9.13C75.63 4.36 66.64 1.64 58.24 0.88C55.17 0.61 55.05 0.61 52.58 0.88ZM16.74 18.47C13.6 19.6 11.29 23.11 10.74 27.59C9.86 34.61 14.9 41.25 20.16 40.01C24.67 38.95 27.77 33.24 27.02 27.39C26.18 20.87 21.45 16.76 16.74 18.47ZM77.77 18.45C74.17 19.79 71.7 24.07 71.69 29C71.69 31.38 72.11 33.27 73.07 35.19C74.41 37.87 76.42 39.53 78.88 40C82.72 40.72 86.44 37.53 87.74 32.39C88.62 28.91 87.96 24.68 86.1 21.82C84.12 18.79 80.65 17.39 77.77 18.45Z" />
		</g>
	</g>
</svg>