<svg xmlns="http://www.w3.org/2000/svg" viewBox="0 0 101 44" width="101" height="44">
	<style>
		tspan { white-space:pre }
		.shp0 { fill: #ff8039 } 
	</style>
	<g id="homepage">
		<g id="მანქანის აიქონები">
			<path id="Car Type05 (Traced)" class="shp0" d="M49.82 0.43C49.39 0.49 48.03 0.65 46.79 0.81C40.62 1.56 39.77 1.94 29.51 8.54C22.49 13.05 22.68 12.95 22.09 12.53C21.55 12.14 20.65 12.28 17.79 13.18C14.2 14.32 10.51 16.08 5.29 19.17C2.19 21.01 1.86 21.44 1.76 23.87C1.72 24.8 1.56 25.53 1.28 26.04C0.75 26.99 0.32 29.38 0.31 31.37L0.31 32.89L0.88 32.73C1.49 32.55 1.51 32.59 1.78 34.34C1.88 35.06 1.82 35.28 1.36 35.81C0.6 36.68 0.95 37.27 2.12 37.1C2.6 37.03 3.69 37.22 4.7 37.54C5.83 37.9 7.43 38.16 9.14 38.25L11.81 38.4L11.53 36.99C9.96 29.12 15.16 21.45 21.21 22.71C23.01 23.08 24.74 24.23 25.96 25.87C28.25 28.94 29.06 32.88 28.31 37.35L28.19 38.06L50.51 38.06L72.82 38.06L72.69 37.35C71.66 31.61 73.56 26.1 77.4 23.67C82.7 20.33 88.78 24.84 89.63 32.74C89.78 34.12 89.78 35.06 89.63 36.04C89.51 36.79 89.44 37.45 89.47 37.49C89.5 37.53 90.13 37.38 90.86 37.15C91.6 36.92 93.74 36.39 95.62 35.96C100.06 34.95 100.04 34.98 100.23 29.51C100.33 26.46 100.31 26.13 99.93 25.29C99.1 23.45 98.88 22.5 98.73 20.08C98.63 18.72 98.37 16.52 98.14 15.2C97.75 12.96 97.74 12.76 98.04 12.15C98.61 10.99 98.48 10.87 96.95 11.06C96.17 11.16 95.45 11.35 95.34 11.49C94.75 12.28 91.5 11.33 85.91 8.72C83.89 7.78 80.5 6.2 78.38 5.21C73.62 2.99 69.15 1.43 66.04 0.9C63.82 0.52 51.83 0.17 49.82 0.43ZM17.23 25.41C16.17 26 15.47 26.67 14.52 28.03C14.32 28.32 13.88 29.3 13.54 30.23C13.02 31.67 12.93 32.19 12.93 34.01C12.92 37.77 14.24 40.7 16.75 42.51C17.91 43.34 18.1 43.4 19.84 43.4C21.55 43.41 21.81 43.34 23.01 42.55C26.59 40.2 28 34.5 26.19 29.72C25.55 28.05 23.8 25.98 22.47 25.31C20.92 24.54 18.75 24.58 17.23 25.41ZM78.4 25.39C76.63 26.36 75.47 27.87 74.64 30.27C73.76 32.79 73.81 35.92 74.77 38.43C75.36 39.99 76.75 41.8 77.99 42.64C79 43.33 79.31 43.4 80.98 43.41C82.69 43.41 82.94 43.34 84.14 42.55C88.62 39.61 89.49 31.77 85.84 27.27C84.36 25.44 83.06 24.77 81.02 24.78C79.89 24.78 79.23 24.94 78.4 25.39Z" />
		</g>
	</g>
</svg>