<svg xmlns="http://www.w3.org/2000/svg" viewBox="0 0 84 84" width="84" height="84">
	<style>
		tspan { white-space:pre }
		.shp0 { fill: #12a24b } 
		.shp1 { fill: #000000 } 
	</style>
	<g id="confirm_popapp">
		<g id="დასტური">
			<g id="done">
				<g id="Group 34">
					<g id="Group 33">
						<path id="Path 23" class="shp0" d="M81.24 11.88C80.01 10.65 78.03 10.65 76.8 11.87L39.17 49.41L25.59 34.66C24.42 33.39 22.43 33.3 21.16 34.48C19.88 35.65 19.8 37.63 20.97 38.91L36.76 56.06C37.34 56.69 38.15 57.05 39 57.07C39.03 57.07 39.05 57.07 39.07 57.07C39.9 57.07 40.7 56.74 41.29 56.15L81.23 16.32C82.46 15.09 82.46 13.11 81.24 11.88Z" />
					</g>
				</g>
				<g id="Group 36">
					<g id="Group 35">
						<path id="Path 24" class="shp1" d="M80.48 38.98C78.75 38.98 77.34 40.38 77.34 42.12C77.34 61.61 61.49 77.46 42 77.46C22.51 77.46 6.66 61.61 6.66 42.12C6.66 22.63 22.51 6.77 42 6.77C43.73 6.77 45.14 5.37 45.14 3.64C45.14 1.9 43.73 0.5 42 0.5C19.05 0.5 0.38 19.17 0.38 42.12C0.38 65.06 19.05 83.73 42 83.73C64.95 83.73 83.62 65.06 83.62 42.12C83.62 40.38 82.21 38.98 80.48 38.98Z" />
					</g>
				</g>
			</g>
		</g>
	</g>
</svg>