<svg xmlns="http://www.w3.org/2000/svg" viewBox="0 0 18 18" width="18" height="18">
	<style>
		tspan { white-space:pre }
		.shp0 { fill: #ece9e0 } 
	</style>
	<g id="product info">
		<g id="Search">
			<path id="Vector" fill-rule="evenodd" class="shp0" d="M17 0C17.26 0 17.52 0.1 17.71 0.28C17.89 0.46 18 0.7 18 0.95L18 3.4C18 3.9 17.79 4.38 17.42 4.73L12 9.87L12 15.16C12 15.52 11.79 15.84 11.45 16.01L7.45 17.9C7.29 17.97 7.12 18.01 6.95 18C6.78 17.99 6.62 17.94 6.47 17.86C6.33 17.77 6.21 17.65 6.13 17.51C6.04 17.37 6 17.21 6 17.05L6 9.87L0.58 4.73C0.21 4.38 0 3.9 0 3.4L0 0.95C0 0.7 0.11 0.46 0.29 0.28C0.48 0.1 0.73 0 1 0L17 0ZM10.29 8.8L16 3.39L16 1.89L2 1.89L2 3.4L7.71 8.8C7.8 8.89 7.87 9 7.92 9.11C7.97 9.23 8 9.35 8 9.47L8 15.52L10 14.57L10 9.47C10 9.35 10.03 9.23 10.08 9.11C10.13 9 10.2 8.89 10.29 8.8Z" />
		</g>
	</g>
</svg>