<svg xmlns="http://www.w3.org/2000/svg" viewBox="0 0 30 30" width="30" height="30">
	<style>
		tspan { white-space:pre }
		.shp0 { opacity: 0.149;fill: #000000 } 
		.shp1 { fill: #3b97d3 } 
		.shp2 { fill: #ffffff } 
		.shp3 { fill: #6bc8f2 } 
		.shp4 { fill: #e64c3c } 
		.shp5 { fill: #f0c419 } 
		.shp6 { fill: #f29c1f } 
		.shp7 { fill: #e57e25 } 
	</style>
	<g id="homepage">
		<g id="მიზანი">
			<g id="Goal icon" style="opacity: 0.302">
				<path id="Vector" class="shp0" d="M29.41 15.29C29.41 23.42 22.83 30 14.71 30C6.58 30 0 23.42 0 15.29C0 7.17 6.58 0.59 14.71 0.59C22.83 0.59 29.41 7.17 29.41 15.29Z" />
				<path id="Vector" class="shp1" d="M30 14.71C30 22.83 23.42 29.41 15.29 29.41C7.17 29.41 0.59 22.83 0.59 14.71C0.59 6.58 7.17 0 15.29 0C23.42 0 30 6.58 30 14.71Z" />
				<path id="Vector" class="shp2" d="M15.29 2.94C21.79 2.94 27.06 8.21 27.06 14.71C27.06 21.2 21.79 26.47 15.29 26.47C8.8 26.47 3.53 21.2 3.53 14.71C3.53 8.21 8.8 2.94 15.29 2.94Z" />
				<path id="Vector" class="shp3" d="M15.29 5.88C20.17 5.88 24.12 9.83 24.12 14.71C24.12 19.58 20.17 23.53 15.29 23.53C10.42 23.53 6.47 19.58 6.47 14.71C6.47 9.83 10.42 5.88 15.29 5.88Z" />
				<path id="Vector" class="shp2" d="M15.29 8.82C18.54 8.82 21.18 11.46 21.18 14.71C21.18 17.95 18.54 20.59 15.29 20.59C12.05 20.59 9.41 17.95 9.41 14.71C9.41 11.46 12.05 8.82 15.29 8.82Z" />
				<path id="Vector" class="shp4" d="M15.29 11.76C16.92 11.76 18.23 13.08 18.23 14.71C18.23 16.33 16.92 17.65 15.29 17.65C13.67 17.65 12.35 16.33 12.35 14.71C12.35 13.08 13.67 11.76 15.29 11.76Z" />
				<path id="Vector" class="shp5" d="M26.18 21.76L22.35 21.76L26.18 25.59L30 25.59L26.18 21.76Z" />
				<path id="Vector" class="shp6" d="M26.18 29.41L26.18 25.59L22.35 21.76L22.35 25.59L26.18 29.41Z" />
				<path id="Vector" class="shp5" d="M26.18 21.76L22.35 21.76L26.18 25.59L30 25.59L26.18 21.76Z" />
				<path id="Vector" class="shp0" d="M14.83 14.25L4.45 24.63C4.65 24.85 4.85 25.06 5.06 25.26L15.46 14.87C15.5 14.83 15.53 14.78 15.56 14.73C15.58 14.67 15.59 14.62 15.59 14.56C15.59 14.5 15.58 14.44 15.56 14.39C15.54 14.33 15.51 14.28 15.46 14.24C15.42 14.2 15.37 14.17 15.32 14.14C15.26 14.12 15.21 14.11 15.15 14.11C15.09 14.11 15.03 14.12 14.98 14.15C14.92 14.17 14.88 14.2 14.83 14.25Z" />
				<path id="Vector" class="shp7" d="M26.58 26.44C26.46 26.44 26.35 26.4 26.26 26.31L14.98 15.02C14.9 14.93 14.86 14.82 14.86 14.71C14.86 14.59 14.91 14.48 14.99 14.4C15.07 14.32 15.18 14.27 15.3 14.27C15.41 14.27 15.52 14.31 15.61 14.39L26.89 25.69C26.95 25.75 26.99 25.83 27.01 25.91C27.03 26 27.02 26.09 26.98 26.17C26.95 26.25 26.89 26.32 26.82 26.37C26.75 26.41 26.66 26.44 26.58 26.44Z" />
			</g>
		</g>
	</g>
</svg>