<svg xmlns="http://www.w3.org/2000/svg" viewBox="0 0 30 30" width="30" height="30">
	<style>
		tspan { white-space:pre }
		.shp0 { fill: #ff8039 } 
	</style>
	<g id="homepage">
		<g id="ჩვენ შესახებ">
			<path id="Vector" fill-rule="evenodd" class="shp0" d="M30 15C30 23.28 23.28 30 15 30C6.72 30 0 23.28 0 15C0 6.72 6.72 0 15 0C23.28 0 30 6.72 30 15ZM16.07 13.12C16.07 12.98 15.95 12.86 15.8 12.86L14.2 12.86C14.05 12.86 13.93 12.98 13.93 13.12L13.93 22.23C13.93 22.38 14.05 22.5 14.2 22.5L15.8 22.5C15.95 22.5 16.07 22.38 16.07 22.23L16.07 13.12ZM16.11 10.23C16.41 9.93 16.57 9.53 16.57 9.11C16.57 8.69 16.41 8.28 16.11 7.98C15.82 7.68 15.42 7.51 15 7.5C14.58 7.51 14.18 7.68 13.88 7.98C13.59 8.28 13.42 8.69 13.42 9.11C13.42 9.53 13.59 9.93 13.88 10.23C14.18 10.53 14.58 10.71 15 10.71C15.42 10.71 15.82 10.53 16.11 10.23Z" />
		</g>
	</g>
</svg>