<svg xmlns="http://www.w3.org/2000/svg" viewBox="0 0 28 26" width="28" height="26">
	<style>
		tspan { white-space:pre }
		.shp0 { fill: #ffffff } 
	</style>
	<g id="homepage">
		<g id="ფუტერი">
			<g id="Subscribe">
				<path id="Vector" class="shp0" d="M6.13 2.64L4.37 0.86C0.25 4.95 0.25 7.92 0.25 11.75L1.5 11.75L2.75 11.67C2.75 8.01 2.75 5.99 6.13 2.64ZM23.63 0.86L21.87 2.64C25.25 5.99 25.25 8.01 25.25 11.75L27.75 11.67C27.75 7.92 27.75 4.95 23.63 0.86L23.63 0.86ZM14 25.5C14.77 25.5 15.53 25.26 16.16 24.81C16.79 24.36 17.27 23.73 17.52 23L10.48 23C10.73 23.73 11.21 24.36 11.84 24.81C12.47 25.26 13.23 25.5 14 25.5L14 25.5ZM22.75 16.23L22.75 10.5C22.75 6.48 20.02 3.09 16.32 2.07C15.95 1.15 15.06 0.5 14 0.5C12.94 0.5 12.05 1.15 11.68 2.07C7.98 3.09 5.25 6.48 5.25 10.5L5.25 16.23L3.12 18.37C3 18.48 2.91 18.62 2.84 18.77C2.78 18.92 2.75 19.09 2.75 19.25L2.75 20.5C2.75 20.83 2.88 21.15 3.12 21.38C3.35 21.62 3.67 21.75 4 21.75L24 21.75C24.33 21.75 24.65 21.62 24.88 21.38C25.12 21.15 25.25 20.83 25.25 20.5L25.25 19.25C25.25 19.09 25.22 18.92 25.15 18.77C25.09 18.62 25 18.48 24.88 18.37L22.75 16.23Z" />
			</g>
		</g>
	</g>
</svg>