<svg xmlns="http://www.w3.org/2000/svg" viewBox="0 0 16 17" width="16" height="17">
	<style>
		tspan { white-space:pre }
		.shp0 { fill: #ffffff } 
	</style>
	<g id="Registration &amp; Log In">
		<g id="header">
			<g id="Log In">
				<g id="icon">
					<path id="Vector" fill-rule="evenodd" class="shp0" d="M1.29 16.5C1.29 16.5 0 16.5 0 15.21C0 13.92 1.29 10.04 7.75 10.04C14.21 10.04 15.5 13.92 15.5 15.21C15.5 16.5 14.21 16.5 14.21 16.5L1.29 16.5ZM7.75 8.75C6.72 8.75 5.74 8.34 5.01 7.61C4.28 6.89 3.87 5.9 3.87 4.87C3.87 3.85 4.28 2.86 5.01 2.13C5.74 1.41 6.72 1 7.75 1C8.78 1 9.76 1.41 10.49 2.13C11.22 2.86 11.62 3.85 11.62 4.87C11.62 5.9 11.22 6.89 10.49 7.61C9.76 8.34 8.78 8.75 7.75 8.75Z" />
				</g>
			</g>
		</g>
	</g>
</svg>